# xmcd
#
# Track frame offsets:
#	150
#	10350
#	34489
#	76600
#	89067
#	101717
#	126123
#	136775
#	184323
#	197332
#	228430
#	248396
#	261676
#	274133
#	286738
#	311792
#
# Disc length: 4314 seconds
#
# Revision: 1
# Processed by: cddbd v1.5.1PL2 Copyright (c) Steve Scherf et al.
# Submitted via: audiograbber 1.83.01
#
DISCID=e010d810
DTITLE=King Curtis - Plys The Great Memphis Hits - King Size Soul
DYEAR=1900
DGENRE=
TTITLE0=Boogie Shuffle
TTITLE1=I´m Having Fun
TTITLE2=Poor Boy Blues
TTITLE3=Games People Play
TTITLE4=Shuffle
TTITLE5=A Whither Shade Of Pale
TTITLE6=I´ve Been Loving You Too Long
TTITLE7=In A Funky Groove
TTITLE8=Let It Be
TTITLE9=Changes
TTITLE10=Mr. Bojangles
TTITLE11=Night Train
TTITLE12=Ode To Billy Joe
TTITLE13=Shuffle
TTITLE14=Soul Serenade
TTITLE15=Sitting On The Dock Of The Bay
EXTD=
EXTT0=
EXTT1=
EXTT2=
EXTT3=
EXTT4=
EXTT5=
EXTT6=
EXTT7=
EXTT8=
EXTT9=
EXTT10=
EXTT11=
EXTT12=
EXTT13=
EXTT14=
EXTT15=
PLAYORDER=
